<mxfile host="app.diagrams.net" agent="Mozilla/5.0 (X11; Linux x86_64) AppleWebKit/537.36 (KHTML, like Gecko) Chrome/136.0.0.0 Safari/537.36" version="26.2.14">
  <diagram name="Página-1" id="nN-MBum_ZgDBfFu1BrdQ">
    <mxGraphModel dx="3428" dy="2928" grid="1" gridSize="10" guides="1" tooltips="1" connect="1" arrows="1" fold="1" page="0" pageScale="1" pageWidth="827" pageHeight="1169" math="0" shadow="0">
      <root>
        <mxCell id="0" />
        <mxCell id="1" parent="0" />
        <mxCell id="_84hlZfVqe2sFGdkgHvm-169" value="" style="rounded=0;whiteSpace=wrap;html=1;" vertex="1" parent="1">
          <mxGeometry x="-440" y="-720" width="840" height="160" as="geometry" />
        </mxCell>
        <mxCell id="_84hlZfVqe2sFGdkgHvm-162" value="" style="rounded=0;whiteSpace=wrap;html=1;fontSize=15;" vertex="1" parent="1">
          <mxGeometry x="-1510" y="-750" width="280" height="179" as="geometry" />
        </mxCell>
        <mxCell id="_84hlZfVqe2sFGdkgHvm-71" value="NoSql" style="shape=cylinder3;whiteSpace=wrap;html=1;boundedLbl=1;backgroundOutline=1;size=15;verticalAlign=top;spacingTop=-30;" vertex="1" parent="1">
          <mxGeometry x="-1490" y="-1135" width="160" height="200" as="geometry" />
        </mxCell>
        <mxCell id="_84hlZfVqe2sFGdkgHvm-72" value="" style="rounded=0;whiteSpace=wrap;html=1;fontSize=15;" vertex="1" parent="1">
          <mxGeometry x="40" y="-520" width="360" height="360" as="geometry" />
        </mxCell>
        <mxCell id="_84hlZfVqe2sFGdkgHvm-185" style="edgeStyle=orthogonalEdgeStyle;rounded=0;orthogonalLoop=1;jettySize=auto;html=1;" edge="1" parent="1" source="_84hlZfVqe2sFGdkgHvm-119" target="_84hlZfVqe2sFGdkgHvm-184">
          <mxGeometry relative="1" as="geometry" />
        </mxCell>
        <mxCell id="_84hlZfVqe2sFGdkgHvm-119" value="" style="rounded=0;whiteSpace=wrap;html=1;dashed=1;" vertex="1" parent="1">
          <mxGeometry x="81" y="-470" width="280" height="80" as="geometry" />
        </mxCell>
        <mxCell id="_84hlZfVqe2sFGdkgHvm-65" style="edgeStyle=orthogonalEdgeStyle;rounded=0;orthogonalLoop=1;jettySize=auto;html=1;entryX=0.5;entryY=0;entryDx=0;entryDy=0;" edge="1" parent="1" source="_84hlZfVqe2sFGdkgHvm-55" target="_84hlZfVqe2sFGdkgHvm-63">
          <mxGeometry relative="1" as="geometry" />
        </mxCell>
        <mxCell id="_84hlZfVqe2sFGdkgHvm-55" value="POLÍGONO&lt;div&gt;CULTURA&lt;/div&gt;&lt;div&gt;DATA DE PLANTIO&lt;/div&gt;&lt;div&gt;DATA DE COLHEITA&lt;/div&gt;" style="rounded=1;whiteSpace=wrap;html=1;fontSize=10;align=left;spacingLeft=8;" vertex="1" parent="1">
          <mxGeometry x="-360" y="-1070" width="160" height="70" as="geometry" />
        </mxCell>
        <mxCell id="_84hlZfVqe2sFGdkgHvm-182" style="edgeStyle=orthogonalEdgeStyle;rounded=0;orthogonalLoop=1;jettySize=auto;html=1;entryX=0;entryY=0.5;entryDx=0;entryDy=0;exitX=0.5;exitY=1;exitDx=0;exitDy=0;" edge="1" parent="1" source="_84hlZfVqe2sFGdkgHvm-58" target="_84hlZfVqe2sFGdkgHvm-119">
          <mxGeometry relative="1" as="geometry" />
        </mxCell>
        <mxCell id="_84hlZfVqe2sFGdkgHvm-183" style="edgeStyle=orthogonalEdgeStyle;rounded=0;orthogonalLoop=1;jettySize=auto;html=1;entryX=0;entryY=0.5;entryDx=0;entryDy=0;exitX=0.5;exitY=1;exitDx=0;exitDy=0;" edge="1" parent="1" source="_84hlZfVqe2sFGdkgHvm-58" target="_84hlZfVqe2sFGdkgHvm-131">
          <mxGeometry relative="1" as="geometry" />
        </mxCell>
        <mxCell id="_84hlZfVqe2sFGdkgHvm-186" style="edgeStyle=orthogonalEdgeStyle;rounded=0;orthogonalLoop=1;jettySize=auto;html=1;" edge="1" parent="1" source="_84hlZfVqe2sFGdkgHvm-58" target="_84hlZfVqe2sFGdkgHvm-184">
          <mxGeometry relative="1" as="geometry" />
        </mxCell>
        <mxCell id="_84hlZfVqe2sFGdkgHvm-58" value="Motor de ingestão de imagens" style="rounded=0;whiteSpace=wrap;html=1;fontSize=15;" vertex="1" parent="1">
          <mxGeometry x="-95" y="-654" width="160" height="50" as="geometry" />
        </mxCell>
        <mxCell id="_84hlZfVqe2sFGdkgHvm-59" value="NoSql" style="shape=cylinder3;whiteSpace=wrap;html=1;boundedLbl=1;backgroundOutline=1;size=15;verticalAlign=top;spacingTop=-30;" vertex="1" parent="1">
          <mxGeometry x="-40" y="-970" width="160" height="170" as="geometry" />
        </mxCell>
        <mxCell id="_84hlZfVqe2sFGdkgHvm-60" value="TB - operações" style="swimlane;childLayout=stackLayout;horizontal=1;startSize=30;horizontalStack=0;rounded=1;fontSize=10;fontStyle=0;strokeWidth=1;resizeParent=0;resizeLast=1;shadow=0;dashed=0;align=center;arcSize=4;whiteSpace=wrap;html=1;collapsible=0;" vertex="1" parent="1">
          <mxGeometry x="-20" y="-920" width="120" height="40" as="geometry" />
        </mxCell>
        <mxCell id="_84hlZfVqe2sFGdkgHvm-146" style="edgeStyle=orthogonalEdgeStyle;rounded=0;orthogonalLoop=1;jettySize=auto;html=1;entryX=0;entryY=0.5;entryDx=0;entryDy=0;dashed=1;" edge="1" parent="1" source="_84hlZfVqe2sFGdkgHvm-63" target="_84hlZfVqe2sFGdkgHvm-60">
          <mxGeometry relative="1" as="geometry" />
        </mxCell>
        <mxCell id="_84hlZfVqe2sFGdkgHvm-63" value="Front-end" style="rounded=0;whiteSpace=wrap;html=1;strokeColor=#FF3333;align=right;verticalAlign=bottom;spacingTop=0;spacing=3;fontSize=14;spacingRight=1;" vertex="1" parent="1">
          <mxGeometry x="-440" y="-960" width="320" height="120" as="geometry" />
        </mxCell>
        <mxCell id="_84hlZfVqe2sFGdkgHvm-64" value="" style="shape=image;verticalLabelPosition=bottom;labelBackgroundColor=default;verticalAlign=top;aspect=fixed;imageAspect=0;image=https://media.datacamp.com/legacy/image/upload/v1640050215/image27_frqkzv.png;" vertex="1" parent="1">
          <mxGeometry x="-440" y="-960" width="153.85" height="90" as="geometry" />
        </mxCell>
        <mxCell id="_84hlZfVqe2sFGdkgHvm-68" value="" style="sketch=0;outlineConnect=0;fontColor=#232F3E;gradientColor=none;fillColor=#7AA116;strokeColor=none;dashed=0;verticalLabelPosition=bottom;verticalAlign=top;align=center;html=1;fontSize=12;fontStyle=0;aspect=fixed;pointerEvents=1;shape=mxgraph.aws4.bucket;" vertex="1" parent="1">
          <mxGeometry x="-1531.8899999999999" y="-930" width="38.46" height="40" as="geometry" />
        </mxCell>
        <mxCell id="_84hlZfVqe2sFGdkgHvm-69" value="IMAGENS" style="sketch=0;outlineConnect=0;fontColor=#232F3E;gradientColor=none;fillColor=#7AA116;strokeColor=none;dashed=0;verticalLabelPosition=middle;verticalAlign=middle;align=left;html=1;fontSize=12;fontStyle=0;aspect=fixed;pointerEvents=1;shape=mxgraph.aws4.bucket_with_objects;labelPosition=right;spacingRight=0;spacingLeft=5;" vertex="1" parent="1">
          <mxGeometry x="91" y="-450" width="38.46" height="40" as="geometry" />
        </mxCell>
        <mxCell id="_84hlZfVqe2sFGdkgHvm-70" value="Database" style="shape=cylinder3;whiteSpace=wrap;html=1;boundedLbl=1;backgroundOutline=1;size=15;verticalAlign=top;spacingTop=-30;" vertex="1" parent="1">
          <mxGeometry x="-1730" y="-855" width="160" height="200" as="geometry" />
        </mxCell>
        <mxCell id="_84hlZfVqe2sFGdkgHvm-67" value="S3" style="sketch=0;points=[[0,0,0],[0.25,0,0],[0.5,0,0],[0.75,0,0],[1,0,0],[0,1,0],[0.25,1,0],[0.5,1,0],[0.75,1,0],[1,1,0],[0,0.25,0],[0,0.5,0],[0,0.75,0],[1,0.25,0],[1,0.5,0],[1,0.75,0]];outlineConnect=0;fontColor=#232F3E;fillColor=#7AA116;strokeColor=#ffffff;dashed=0;verticalLabelPosition=middle;verticalAlign=middle;align=left;html=1;fontSize=12;fontStyle=0;aspect=fixed;shape=mxgraph.aws4.resourceIcon;resIcon=mxgraph.aws4.s3;labelPosition=right;spacingLeft=3;" vertex="1" parent="1">
          <mxGeometry x="41" y="-519" width="40" height="40" as="geometry" />
        </mxCell>
        <mxCell id="_84hlZfVqe2sFGdkgHvm-73" value="TB - operações" style="shape=table;startSize=20;container=1;collapsible=0;childLayout=tableLayout;strokeColor=default;fontSize=10;rounded=1;arcSize=3;" vertex="1" parent="1">
          <mxGeometry x="160" y="-960" width="510" height="61" as="geometry" />
        </mxCell>
        <mxCell id="_84hlZfVqe2sFGdkgHvm-74" value="" style="shape=tableRow;horizontal=0;startSize=0;swimlaneHead=0;swimlaneBody=0;strokeColor=inherit;top=0;left=0;bottom=0;right=0;collapsible=0;dropTarget=0;fillColor=none;points=[[0,0.5],[1,0.5]];portConstraint=eastwest;fontSize=16;" vertex="1" parent="_84hlZfVqe2sFGdkgHvm-73">
          <mxGeometry y="20" width="510" height="20" as="geometry" />
        </mxCell>
        <mxCell id="_84hlZfVqe2sFGdkgHvm-75" value="&lt;font style=&quot;line-height: 150%;&quot;&gt;id&lt;/font&gt;" style="shape=partialRectangle;html=1;whiteSpace=wrap;connectable=0;strokeColor=inherit;overflow=hidden;fillColor=none;top=0;left=0;bottom=0;right=0;pointerEvents=1;fontSize=10;verticalAlign=middle;align=center;fontStyle=1" vertex="1" parent="_84hlZfVqe2sFGdkgHvm-74">
          <mxGeometry width="31" height="20" as="geometry">
            <mxRectangle width="31" height="20" as="alternateBounds" />
          </mxGeometry>
        </mxCell>
        <mxCell id="_84hlZfVqe2sFGdkgHvm-76" value="&lt;span&gt;polígono&lt;/span&gt;" style="shape=partialRectangle;html=1;whiteSpace=wrap;connectable=0;strokeColor=inherit;overflow=hidden;fillColor=none;top=0;left=0;bottom=0;right=0;pointerEvents=1;fontSize=9;fontStyle=1" vertex="1" parent="_84hlZfVqe2sFGdkgHvm-74">
          <mxGeometry x="31" width="53" height="20" as="geometry">
            <mxRectangle width="53" height="20" as="alternateBounds" />
          </mxGeometry>
        </mxCell>
        <mxCell id="_84hlZfVqe2sFGdkgHvm-106" value="cultura" style="shape=partialRectangle;html=1;whiteSpace=wrap;connectable=0;strokeColor=inherit;overflow=hidden;fillColor=none;top=0;left=0;bottom=0;right=0;pointerEvents=1;fontSize=9;fontStyle=1" vertex="1" parent="_84hlZfVqe2sFGdkgHvm-74">
          <mxGeometry x="84" width="46" height="20" as="geometry">
            <mxRectangle width="46" height="20" as="alternateBounds" />
          </mxGeometry>
        </mxCell>
        <mxCell id="_84hlZfVqe2sFGdkgHvm-77" value="data de plantio" style="shape=partialRectangle;html=1;whiteSpace=wrap;connectable=0;strokeColor=inherit;overflow=hidden;fillColor=none;top=0;left=0;bottom=0;right=0;pointerEvents=1;fontSize=9;fontStyle=1" vertex="1" parent="_84hlZfVqe2sFGdkgHvm-74">
          <mxGeometry x="130" width="70" height="20" as="geometry">
            <mxRectangle width="70" height="20" as="alternateBounds" />
          </mxGeometry>
        </mxCell>
        <mxCell id="_84hlZfVqe2sFGdkgHvm-100" value="data de colheita" style="shape=partialRectangle;html=1;whiteSpace=wrap;connectable=0;strokeColor=inherit;overflow=hidden;fillColor=none;top=0;left=0;bottom=0;right=0;pointerEvents=1;fontSize=9;fontStyle=1" vertex="1" parent="_84hlZfVqe2sFGdkgHvm-74">
          <mxGeometry x="200" width="80" height="20" as="geometry">
            <mxRectangle width="80" height="20" as="alternateBounds" />
          </mxGeometry>
        </mxCell>
        <mxCell id="_84hlZfVqe2sFGdkgHvm-109" value="status imagem" style="shape=partialRectangle;html=1;whiteSpace=wrap;connectable=0;strokeColor=inherit;overflow=hidden;fillColor=none;top=0;left=0;bottom=0;right=0;pointerEvents=1;fontSize=9;fontStyle=1" vertex="1" parent="_84hlZfVqe2sFGdkgHvm-74">
          <mxGeometry x="280" width="70" height="20" as="geometry">
            <mxRectangle width="70" height="20" as="alternateBounds" />
          </mxGeometry>
        </mxCell>
        <mxCell id="_84hlZfVqe2sFGdkgHvm-111" value="status modelo" style="shape=partialRectangle;html=1;whiteSpace=wrap;connectable=0;strokeColor=inherit;overflow=hidden;fillColor=none;top=0;left=0;bottom=0;right=0;pointerEvents=1;fontSize=9;fontStyle=1" vertex="1" parent="_84hlZfVqe2sFGdkgHvm-74">
          <mxGeometry x="350" width="70" height="20" as="geometry">
            <mxRectangle width="70" height="20" as="alternateBounds" />
          </mxGeometry>
        </mxCell>
        <mxCell id="_84hlZfVqe2sFGdkgHvm-167" value="resposta modelo" style="shape=partialRectangle;html=1;whiteSpace=wrap;connectable=0;strokeColor=inherit;overflow=hidden;fillColor=none;top=0;left=0;bottom=0;right=0;pointerEvents=1;fontSize=9;fontStyle=1" vertex="1" parent="_84hlZfVqe2sFGdkgHvm-74">
          <mxGeometry x="420" width="90" height="20" as="geometry">
            <mxRectangle width="90" height="20" as="alternateBounds" />
          </mxGeometry>
        </mxCell>
        <mxCell id="_84hlZfVqe2sFGdkgHvm-78" value="" style="shape=tableRow;horizontal=0;startSize=0;swimlaneHead=0;swimlaneBody=0;strokeColor=inherit;top=0;left=0;bottom=0;right=0;collapsible=0;dropTarget=0;fillColor=none;points=[[0,0.5],[1,0.5]];portConstraint=eastwest;fontSize=16;" vertex="1" parent="_84hlZfVqe2sFGdkgHvm-73">
          <mxGeometry y="40" width="510" height="21" as="geometry" />
        </mxCell>
        <mxCell id="_84hlZfVqe2sFGdkgHvm-79" value="0001" style="shape=partialRectangle;html=1;whiteSpace=wrap;connectable=0;strokeColor=inherit;overflow=hidden;fillColor=none;top=0;left=0;bottom=0;right=0;pointerEvents=1;fontSize=9;verticalAlign=middle;" vertex="1" parent="_84hlZfVqe2sFGdkgHvm-78">
          <mxGeometry width="31" height="21" as="geometry">
            <mxRectangle width="31" height="21" as="alternateBounds" />
          </mxGeometry>
        </mxCell>
        <mxCell id="_84hlZfVqe2sFGdkgHvm-80" value="POLYGON" style="shape=partialRectangle;html=1;whiteSpace=wrap;connectable=0;strokeColor=inherit;overflow=hidden;fillColor=none;top=0;left=0;bottom=0;right=0;pointerEvents=1;fontSize=9;" vertex="1" parent="_84hlZfVqe2sFGdkgHvm-78">
          <mxGeometry x="31" width="53" height="21" as="geometry">
            <mxRectangle width="53" height="21" as="alternateBounds" />
          </mxGeometry>
        </mxCell>
        <mxCell id="_84hlZfVqe2sFGdkgHvm-107" value="soja" style="shape=partialRectangle;html=1;whiteSpace=wrap;connectable=0;strokeColor=inherit;overflow=hidden;fillColor=none;top=0;left=0;bottom=0;right=0;pointerEvents=1;fontSize=9;" vertex="1" parent="_84hlZfVqe2sFGdkgHvm-78">
          <mxGeometry x="84" width="46" height="21" as="geometry">
            <mxRectangle width="46" height="21" as="alternateBounds" />
          </mxGeometry>
        </mxCell>
        <mxCell id="_84hlZfVqe2sFGdkgHvm-81" value="07/09/2024" style="shape=partialRectangle;html=1;whiteSpace=wrap;connectable=0;strokeColor=inherit;overflow=hidden;fillColor=none;top=0;left=0;bottom=0;right=0;pointerEvents=1;fontSize=9;" vertex="1" parent="_84hlZfVqe2sFGdkgHvm-78">
          <mxGeometry x="130" width="70" height="21" as="geometry">
            <mxRectangle width="70" height="21" as="alternateBounds" />
          </mxGeometry>
        </mxCell>
        <mxCell id="_84hlZfVqe2sFGdkgHvm-101" value="14/04/2025" style="shape=partialRectangle;html=1;whiteSpace=wrap;connectable=0;strokeColor=inherit;overflow=hidden;fillColor=none;top=0;left=0;bottom=0;right=0;pointerEvents=1;fontSize=9;" vertex="1" parent="_84hlZfVqe2sFGdkgHvm-78">
          <mxGeometry x="200" width="80" height="21" as="geometry">
            <mxRectangle width="80" height="21" as="alternateBounds" />
          </mxGeometry>
        </mxCell>
        <mxCell id="_84hlZfVqe2sFGdkgHvm-110" value="X" style="shape=partialRectangle;html=1;whiteSpace=wrap;connectable=0;strokeColor=inherit;overflow=hidden;fillColor=none;top=0;left=0;bottom=0;right=0;pointerEvents=1;fontSize=9;" vertex="1" parent="_84hlZfVqe2sFGdkgHvm-78">
          <mxGeometry x="280" width="70" height="21" as="geometry">
            <mxRectangle width="70" height="21" as="alternateBounds" />
          </mxGeometry>
        </mxCell>
        <mxCell id="_84hlZfVqe2sFGdkgHvm-112" value="X" style="shape=partialRectangle;html=1;whiteSpace=wrap;connectable=0;strokeColor=inherit;overflow=hidden;fillColor=none;top=0;left=0;bottom=0;right=0;pointerEvents=1;fontSize=9;" vertex="1" parent="_84hlZfVqe2sFGdkgHvm-78">
          <mxGeometry x="350" width="70" height="21" as="geometry">
            <mxRectangle width="70" height="21" as="alternateBounds" />
          </mxGeometry>
        </mxCell>
        <mxCell id="_84hlZfVqe2sFGdkgHvm-168" value="milho" style="shape=partialRectangle;html=1;whiteSpace=wrap;connectable=0;strokeColor=inherit;overflow=hidden;fillColor=none;top=0;left=0;bottom=0;right=0;pointerEvents=1;fontSize=9;" vertex="1" parent="_84hlZfVqe2sFGdkgHvm-78">
          <mxGeometry x="420" width="90" height="21" as="geometry">
            <mxRectangle width="90" height="21" as="alternateBounds" />
          </mxGeometry>
        </mxCell>
        <mxCell id="_84hlZfVqe2sFGdkgHvm-181" style="edgeStyle=orthogonalEdgeStyle;rounded=0;orthogonalLoop=1;jettySize=auto;html=1;entryX=0;entryY=0.5;entryDx=0;entryDy=0;" edge="1" parent="1" source="_84hlZfVqe2sFGdkgHvm-108" target="_84hlZfVqe2sFGdkgHvm-169">
          <mxGeometry relative="1" as="geometry" />
        </mxCell>
        <mxCell id="_84hlZfVqe2sFGdkgHvm-108" value="EventBridge" style="sketch=0;points=[[0,0,0],[0.25,0,0],[0.5,0,0],[0.75,0,0],[1,0,0],[0,1,0],[0.25,1,0],[0.5,1,0],[0.75,1,0],[1,1,0],[0,0.25,0],[0,0.5,0],[0,0.75,0],[1,0.25,0],[1,0.5,0],[1,0.75,0]];outlineConnect=0;fontColor=#232F3E;fillColor=#E7157B;strokeColor=#ffffff;dashed=0;verticalLabelPosition=top;verticalAlign=bottom;align=center;html=1;fontSize=12;fontStyle=0;aspect=fixed;shape=mxgraph.aws4.resourceIcon;resIcon=mxgraph.aws4.eventbridge;labelPosition=center;" vertex="1" parent="1">
          <mxGeometry x="-520" y="-660" width="40" height="40" as="geometry" />
        </mxCell>
        <mxCell id="_84hlZfVqe2sFGdkgHvm-180" style="edgeStyle=orthogonalEdgeStyle;rounded=0;orthogonalLoop=1;jettySize=auto;html=1;entryX=0;entryY=0.5;entryDx=0;entryDy=0;" edge="1" parent="1" source="_84hlZfVqe2sFGdkgHvm-115" target="_84hlZfVqe2sFGdkgHvm-58">
          <mxGeometry relative="1" as="geometry" />
        </mxCell>
        <mxCell id="_84hlZfVqe2sFGdkgHvm-188" style="edgeStyle=orthogonalEdgeStyle;rounded=0;orthogonalLoop=1;jettySize=auto;html=1;entryX=0.5;entryY=1;entryDx=0;entryDy=0;" edge="1" parent="1" source="_84hlZfVqe2sFGdkgHvm-115" target="_84hlZfVqe2sFGdkgHvm-60">
          <mxGeometry relative="1" as="geometry">
            <Array as="points">
              <mxPoint x="-215" y="-760" />
              <mxPoint x="40" y="-760" />
            </Array>
          </mxGeometry>
        </mxCell>
        <mxCell id="_84hlZfVqe2sFGdkgHvm-115" value="&lt;span style=&quot;color: rgb(0, 0, 0); font-family: Helvetica; font-size: 11px; font-style: normal; font-variant-ligatures: normal; font-variant-caps: normal; font-weight: 400; letter-spacing: normal; orphans: 2; text-align: center; text-indent: 0px; text-transform: none; widows: 2; word-spacing: 0px; -webkit-text-stroke-width: 0px; white-space: nowrap; background-color: rgb(255, 255, 255); text-decoration-thickness: initial; text-decoration-style: initial; text-decoration-color: initial; display: inline !important; float: none;&quot;&gt;Pega todas operações que&amp;nbsp;&lt;/span&gt;&lt;div style=&quot;forced-color-adjust: none; color: rgb(0, 0, 0); font-family: Helvetica; font-size: 11px; font-style: normal; font-variant-ligatures: normal; font-variant-caps: normal; font-weight: 400; letter-spacing: normal; orphans: 2; text-align: center; text-indent: 0px; text-transform: none; widows: 2; word-spacing: 0px; -webkit-text-stroke-width: 0px; white-space: nowrap; text-decoration-thickness: initial; text-decoration-style: initial; text-decoration-color: initial;&quot;&gt;ainda não&amp;nbsp;&lt;span style=&quot;forced-color-adjust: none; background-color: rgb(255, 255, 255); color: light-dark(rgb(0, 0, 0), rgb(255, 255, 255));&quot;&gt;foram marcadas com&amp;nbsp;&lt;/span&gt;&lt;/div&gt;&lt;div style=&quot;forced-color-adjust: none; color: rgb(0, 0, 0); font-family: Helvetica; font-size: 11px; font-style: normal; font-variant-ligatures: normal; font-variant-caps: normal; font-weight: 400; letter-spacing: normal; orphans: 2; text-align: center; text-indent: 0px; text-transform: none; widows: 2; word-spacing: 0px; -webkit-text-stroke-width: 0px; white-space: nowrap; text-decoration-thickness: initial; text-decoration-style: initial; text-decoration-color: initial;&quot;&gt;&lt;span style=&quot;forced-color-adjust: none; background-color: rgb(255, 255, 255); color: light-dark(rgb(0, 0, 0), rgb(255, 255, 255));&quot;&gt;status de imagem concluído&lt;/span&gt;&lt;/div&gt;" style="rounded=0;whiteSpace=wrap;html=1;" vertex="1" parent="1">
          <mxGeometry x="-300" y="-659" width="170" height="60" as="geometry" />
        </mxCell>
        <mxCell id="_84hlZfVqe2sFGdkgHvm-122" value="TB - metadados" style="swimlane;childLayout=stackLayout;horizontal=1;startSize=30;horizontalStack=0;rounded=1;fontSize=10;fontStyle=0;strokeWidth=1;resizeParent=0;resizeLast=1;shadow=0;dashed=0;align=center;arcSize=4;whiteSpace=wrap;html=1;collapsible=0;" vertex="1" parent="1">
          <mxGeometry x="-1470" y="-1060" width="120" height="40" as="geometry" />
        </mxCell>
        <mxCell id="_84hlZfVqe2sFGdkgHvm-127" value="&lt;font&gt;btn-refresh&lt;/font&gt;" style="shape=image;html=1;verticalAlign=top;verticalLabelPosition=bottom;labelBackgroundColor=#ffffff;imageAspect=0;aspect=fixed;image=https://cdn1.iconfinder.com/data/icons/material-core/16/refresh-128.png;spacing=0;spacingTop=-2;fontSize=10;" vertex="1" parent="1">
          <mxGeometry x="-210" y="-925" width="20" height="20" as="geometry" />
        </mxCell>
        <mxCell id="_84hlZfVqe2sFGdkgHvm-131" value="" style="rounded=0;whiteSpace=wrap;html=1;dashed=1;" vertex="1" parent="1">
          <mxGeometry x="81" y="-370" width="280" height="80" as="geometry" />
        </mxCell>
        <mxCell id="_84hlZfVqe2sFGdkgHvm-132" value="METADADOS" style="sketch=0;outlineConnect=0;fontColor=#232F3E;gradientColor=none;fillColor=#7AA116;strokeColor=none;dashed=0;verticalLabelPosition=middle;verticalAlign=middle;align=left;html=1;fontSize=12;fontStyle=0;aspect=fixed;pointerEvents=1;shape=mxgraph.aws4.bucket_with_objects;labelPosition=right;spacingLeft=5;" vertex="1" parent="1">
          <mxGeometry x="91" y="-350" width="38.46" height="40" as="geometry" />
        </mxCell>
        <mxCell id="_84hlZfVqe2sFGdkgHvm-136" value="" style="sketch=0;outlineConnect=0;fontColor=#232F3E;gradientColor=none;fillColor=#232F3D;strokeColor=none;dashed=0;verticalLabelPosition=bottom;verticalAlign=top;align=center;html=1;fontSize=12;fontStyle=0;aspect=fixed;pointerEvents=1;shape=mxgraph.aws4.json_script;" vertex="1" parent="1">
          <mxGeometry x="-1588.89" y="-955" width="57" height="78" as="geometry" />
        </mxCell>
        <mxCell id="_84hlZfVqe2sFGdkgHvm-137" value="" style="shape=image;html=1;verticalAlign=top;verticalLabelPosition=bottom;labelBackgroundColor=#ffffff;imageAspect=0;aspect=fixed;image=https://cdn1.iconfinder.com/data/icons/bootstrap-vol-3/16/filetype-json-128.png" vertex="1" parent="1">
          <mxGeometry x="251" y="-347.5" width="35" height="35" as="geometry" />
        </mxCell>
        <mxCell id="_84hlZfVqe2sFGdkgHvm-138" value="" style="dashed=0;outlineConnect=0;html=1;align=center;labelPosition=center;verticalLabelPosition=bottom;verticalAlign=top;shape=mxgraph.weblogos.json_2" vertex="1" parent="1">
          <mxGeometry x="-1720" y="-935" width="80.4" height="25.200000000000003" as="geometry" />
        </mxCell>
        <mxCell id="_84hlZfVqe2sFGdkgHvm-139" value="" style="shape=image;verticalLabelPosition=bottom;labelBackgroundColor=default;verticalAlign=top;aspect=fixed;imageAspect=0;image=https://cdn-icons-png.flaticon.com/512/337/337955.png;" vertex="1" parent="1">
          <mxGeometry x="-1730" y="-1035" width="70" height="70" as="geometry" />
        </mxCell>
        <mxCell id="_84hlZfVqe2sFGdkgHvm-140" value="" style="shape=image;verticalLabelPosition=bottom;labelBackgroundColor=default;verticalAlign=top;aspect=fixed;imageAspect=0;image=https://cdn-icons-png.flaticon.com/512/8243/8243052.png;" vertex="1" parent="1">
          <mxGeometry x="-1620" y="-1057" width="80" height="80" as="geometry" />
        </mxCell>
        <mxCell id="_84hlZfVqe2sFGdkgHvm-141" value="" style="shape=image;verticalLabelPosition=bottom;labelBackgroundColor=default;verticalAlign=top;aspect=fixed;imageAspect=0;image=https://cdn-icons-png.flaticon.com/512/527/527558.png;" vertex="1" parent="1">
          <mxGeometry x="-1740" y="-1135" width="70" height="70" as="geometry" />
        </mxCell>
        <mxCell id="_84hlZfVqe2sFGdkgHvm-142" value="" style="shape=image;verticalLabelPosition=bottom;labelBackgroundColor=default;verticalAlign=top;aspect=fixed;imageAspect=0;image=https://blog.online-convert.com/wp-content/uploads/2019/02/TIFF-is-without-future.png;" vertex="1" parent="1">
          <mxGeometry x="-1600" y="-1145" width="79.22" height="80" as="geometry" />
        </mxCell>
        <mxCell id="_84hlZfVqe2sFGdkgHvm-144" value="" style="shape=image;verticalLabelPosition=bottom;labelBackgroundColor=default;verticalAlign=top;aspect=fixed;imageAspect=0;image=https://blog.online-convert.com/wp-content/uploads/2019/02/TIFF-is-without-future.png;" vertex="1" parent="1">
          <mxGeometry x="211" y="-455" width="49.51" height="50" as="geometry" />
        </mxCell>
        <mxCell id="_84hlZfVqe2sFGdkgHvm-145" value="data cube" style="shape=image;verticalLabelPosition=bottom;labelBackgroundColor=default;verticalAlign=top;aspect=fixed;imageAspect=0;image=https://raw.githubusercontent.com/xarray-contrib/xarray.dev/main/public/Xarray-assets/Icon/Xarray_Icon_Final.png;fontColor=#006666;spacing=0;spacingTop=-6;fontSize=10;" vertex="1" parent="1">
          <mxGeometry x="281" y="-455" width="50" height="50" as="geometry" />
        </mxCell>
        <mxCell id="_84hlZfVqe2sFGdkgHvm-150" value="Modelo Classificação&lt;div&gt;do cultivo&lt;/div&gt;" style="sketch=0;outlineConnect=0;fontColor=#232F3E;gradientColor=none;fillColor=#01A88D;strokeColor=none;dashed=0;verticalLabelPosition=bottom;verticalAlign=top;align=center;html=1;fontSize=12;fontStyle=0;aspect=fixed;pointerEvents=1;shape=mxgraph.aws4.sagemaker_model;" vertex="1" parent="1">
          <mxGeometry x="-1380" y="-681" width="40" height="40" as="geometry" />
        </mxCell>
        <mxCell id="_84hlZfVqe2sFGdkgHvm-153" style="edgeStyle=orthogonalEdgeStyle;rounded=0;orthogonalLoop=1;jettySize=auto;html=1;entryX=0.5;entryY=0;entryDx=0;entryDy=0;" edge="1" parent="1" source="_84hlZfVqe2sFGdkgHvm-152" target="_84hlZfVqe2sFGdkgHvm-55">
          <mxGeometry relative="1" as="geometry" />
        </mxCell>
        <mxCell id="_84hlZfVqe2sFGdkgHvm-152" value="" style="points=[[0.35,0,0],[0.98,0.51,0],[1,0.71,0],[0.67,1,0],[0,0.795,0],[0,0.65,0]];verticalLabelPosition=bottom;sketch=0;html=1;verticalAlign=top;aspect=fixed;align=center;pointerEvents=1;shape=mxgraph.cisco19.user;fillColor=#000000;strokeColor=none;" vertex="1" parent="1">
          <mxGeometry x="-315" y="-1190" width="70" height="70" as="geometry" />
        </mxCell>
        <mxCell id="_84hlZfVqe2sFGdkgHvm-154" value="&lt;b&gt;Duvidas:&lt;/b&gt;&lt;div&gt;&lt;br&gt;&lt;/div&gt;&lt;div&gt;- Qual a volumetria média de operações por semana?&lt;/div&gt;&lt;div&gt;R:&lt;/div&gt;&lt;div&gt;&lt;br&gt;&lt;/div&gt;&lt;div&gt;&lt;br&gt;&lt;/div&gt;&lt;div&gt;&lt;br&gt;&lt;/div&gt;&lt;div&gt;&lt;br&gt;&lt;/div&gt;&lt;div&gt;&lt;br&gt;&lt;/div&gt;&lt;div&gt;&lt;br&gt;&lt;/div&gt;&lt;div&gt;&lt;br&gt;&lt;/div&gt;" style="rounded=0;whiteSpace=wrap;html=1;align=left;verticalAlign=top;spacing=3;spacingLeft=5;" vertex="1" parent="1">
          <mxGeometry x="-124" y="-1280" width="405" height="200" as="geometry" />
        </mxCell>
        <mxCell id="_84hlZfVqe2sFGdkgHvm-159" value="Fargate" style="sketch=0;points=[[0,0,0],[0.25,0,0],[0.5,0,0],[0.75,0,0],[1,0,0],[0,1,0],[0.25,1,0],[0.5,1,0],[0.75,1,0],[1,1,0],[0,0.25,0],[0,0.5,0],[0,0.75,0],[1,0.25,0],[1,0.5,0],[1,0.75,0]];outlineConnect=0;fontColor=#232F3E;fillColor=#ED7100;strokeColor=#ffffff;dashed=0;verticalLabelPosition=bottom;verticalAlign=top;align=center;html=1;fontSize=12;fontStyle=0;aspect=fixed;shape=mxgraph.aws4.resourceIcon;resIcon=mxgraph.aws4.fargate;" vertex="1" parent="1">
          <mxGeometry x="-1430" y="-890" width="40" height="40" as="geometry" />
        </mxCell>
        <mxCell id="_84hlZfVqe2sFGdkgHvm-160" value="ECS" style="sketch=0;points=[[0,0,0],[0.25,0,0],[0.5,0,0],[0.75,0,0],[1,0,0],[0,1,0],[0.25,1,0],[0.5,1,0],[0.75,1,0],[1,1,0],[0,0.25,0],[0,0.5,0],[0,0.75,0],[1,0.25,0],[1,0.5,0],[1,0.75,0]];outlineConnect=0;fontColor=#232F3E;fillColor=#ED7100;strokeColor=#ffffff;dashed=0;verticalLabelPosition=middle;verticalAlign=middle;align=left;html=1;fontSize=12;fontStyle=0;aspect=fixed;shape=mxgraph.aws4.resourceIcon;resIcon=mxgraph.aws4.ecs;labelPosition=right;spacingLeft=3;" vertex="1" parent="1">
          <mxGeometry x="-440" y="-720" width="40" height="40" as="geometry" />
        </mxCell>
        <mxCell id="_84hlZfVqe2sFGdkgHvm-161" value="Sagemaker&lt;div&gt;Processing&lt;/div&gt;" style="sketch=0;points=[[0,0,0],[0.25,0,0],[0.5,0,0],[0.75,0,0],[1,0,0],[0,1,0],[0.25,1,0],[0.5,1,0],[0.75,1,0],[1,1,0],[0,0.25,0],[0,0.5,0],[0,0.75,0],[1,0.25,0],[1,0.5,0],[1,0.75,0]];outlineConnect=0;fontColor=#232F3E;fillColor=#01A88D;strokeColor=#ffffff;dashed=0;verticalLabelPosition=middle;verticalAlign=middle;align=left;html=1;fontSize=12;fontStyle=0;aspect=fixed;shape=mxgraph.aws4.resourceIcon;resIcon=mxgraph.aws4.deep_learning_containers;labelPosition=right;spacingLeft=3;" vertex="1" parent="1">
          <mxGeometry x="-1510" y="-750" width="44" height="44" as="geometry" />
        </mxCell>
        <mxCell id="_84hlZfVqe2sFGdkgHvm-163" value="" style="rounded=0;whiteSpace=wrap;html=1;dashed=1;" vertex="1" parent="1">
          <mxGeometry x="81" y="-270" width="280" height="80" as="geometry" />
        </mxCell>
        <mxCell id="_84hlZfVqe2sFGdkgHvm-164" value="MODELOS" style="sketch=0;outlineConnect=0;fontColor=#232F3E;gradientColor=none;fillColor=#7AA116;strokeColor=none;dashed=0;verticalLabelPosition=middle;verticalAlign=middle;align=left;html=1;fontSize=12;fontStyle=0;aspect=fixed;pointerEvents=1;shape=mxgraph.aws4.bucket_with_objects;labelPosition=right;spacingLeft=5;" vertex="1" parent="1">
          <mxGeometry x="91" y="-250" width="38.46" height="40" as="geometry" />
        </mxCell>
        <mxCell id="_84hlZfVqe2sFGdkgHvm-166" value="" style="sketch=0;outlineConnect=0;fontColor=#232F3E;gradientColor=none;fillColor=#01A88D;strokeColor=none;dashed=0;verticalLabelPosition=bottom;verticalAlign=top;align=center;html=1;fontSize=12;fontStyle=0;aspect=fixed;pointerEvents=1;shape=mxgraph.aws4.sagemaker_model;" vertex="1" parent="1">
          <mxGeometry x="251" y="-250" width="40" height="40" as="geometry" />
        </mxCell>
        <mxCell id="_84hlZfVqe2sFGdkgHvm-179" style="edgeStyle=orthogonalEdgeStyle;rounded=0;orthogonalLoop=1;jettySize=auto;html=1;entryX=0;entryY=0.5;entryDx=0;entryDy=0;" edge="1" parent="1" source="_84hlZfVqe2sFGdkgHvm-171" target="_84hlZfVqe2sFGdkgHvm-115">
          <mxGeometry relative="1" as="geometry" />
        </mxCell>
        <mxCell id="_84hlZfVqe2sFGdkgHvm-171" value="Inicio" style="rounded=1;whiteSpace=wrap;html=1;arcSize=50;fillColor=#d5e8d4;strokeColor=#82b366;" vertex="1" parent="1">
          <mxGeometry x="-400" y="-639" width="75" height="20" as="geometry" />
        </mxCell>
        <mxCell id="_84hlZfVqe2sFGdkgHvm-190" style="edgeStyle=orthogonalEdgeStyle;rounded=0;orthogonalLoop=1;jettySize=auto;html=1;entryX=0;entryY=0.5;entryDx=0;entryDy=0;" edge="1" parent="1" source="_84hlZfVqe2sFGdkgHvm-184" target="_84hlZfVqe2sFGdkgHvm-189">
          <mxGeometry relative="1" as="geometry" />
        </mxCell>
        <mxCell id="_84hlZfVqe2sFGdkgHvm-184" value="Modelo Classificação&lt;div&gt;do cultivo&lt;/div&gt;" style="sketch=0;outlineConnect=0;fontColor=#232F3E;gradientColor=none;fillColor=#01A88D;strokeColor=none;dashed=0;verticalLabelPosition=top;verticalAlign=bottom;align=center;html=1;fontSize=12;fontStyle=0;aspect=fixed;pointerEvents=1;shape=mxgraph.aws4.sagemaker_model;labelPosition=center;" vertex="1" parent="1">
          <mxGeometry x="120" y="-649" width="40" height="40" as="geometry" />
        </mxCell>
        <mxCell id="_84hlZfVqe2sFGdkgHvm-191" style="edgeStyle=orthogonalEdgeStyle;rounded=0;orthogonalLoop=1;jettySize=auto;html=1;entryX=0.5;entryY=1;entryDx=0;entryDy=0;" edge="1" parent="1" source="_84hlZfVqe2sFGdkgHvm-189" target="_84hlZfVqe2sFGdkgHvm-60">
          <mxGeometry relative="1" as="geometry">
            <Array as="points">
              <mxPoint x="300" y="-840" />
              <mxPoint x="40" y="-840" />
            </Array>
          </mxGeometry>
        </mxCell>
        <mxCell id="_84hlZfVqe2sFGdkgHvm-189" value="Escreve resultado na tabela de operações" style="rounded=0;whiteSpace=wrap;html=1;fontSize=15;" vertex="1" parent="1">
          <mxGeometry x="220" y="-654" width="160" height="50" as="geometry" />
        </mxCell>
      </root>
    </mxGraphModel>
  </diagram>
</mxfile>
